# xmcd CD database file
#
# Track frame offsets:
#	150
#	63460
#	110055
#	154657
#
# Disc length: 2644 seconds
#
# Revision: 3
# Processed by: cddbd v1.5.2PL0 Copyright (c) Steve Scherf et al.
# Submitted via: CDex 1.51
#
DISCID=300a5204
DTITLE=山川紘矢・山川亜希子 - 瞑想へのいざない Disc2 やすらぎの旅
DYEAR=2002
DGENRE=New Age
TTITLE0=虹の瞑想
TTITLE1=ハイヤーセルフに会う
TTITLE2=宇宙への旅
TTITLE3=ワンネス
EXTD=YEAR: 2002
EXTT0=
EXTT1=
EXTT2=
EXTT3=
PLAYORDER=
